<svg
  xmlns="http://www.w3.org/2000/svg"
  width="32"
  height="34"
  viewBox="0 0 32 34"
  fill="none"
>
  <rect
    x="0.196289"
    y="0.592285"
    width="28.8183"
    height="2.69591"
    fill="#D9D9D9"
  />
  <rect
    x="0.196289"
    y="8.12207"
    width="28.8183"
    height="2.69591"
    fill="#D9D9D9"
  />
  <rect
    x="0.196289"
    y="15.6519"
    width="28.8183"
    height="2.69591"
    fill="#D9D9D9"
  />
  <rect
    x="0.196289"
    y="23.1821"
    width="28.8183"
    height="2.69591"
    fill="#D9D9D9"
  />
  <rect
    x="0.196289"
    y="32.1064"
    width="28.8183"
    height="2.69591"
    transform="rotate(-90 0.196289 32.1064)"
    fill="#D9D9D9"
  />
  <rect
    x="9.02783"
    y="32.1064"
    width="28.8183"
    height="2.69591"
    transform="rotate(-90 9.02783 32.1064)"
    fill="#D9D9D9"
  />
  <rect
    x="17.8589"
    y="32.1064"
    width="28.8183"
    height="2.69591"
    transform="rotate(-90 17.8589 32.1064)"
    fill="#D9D9D9"
  />
  <rect
    x="0.196289"
    y="30.7119"
    width="28.8183"
    height="2.69591"
    fill="#D9D9D9"
  />
  <rect
    x="29.1074"
    y="33.4077"
    width="30.1198"
    height="2.69591"
    transform="rotate(-90 29.1074 33.4077)"
    fill="#D9D9D9"
  />
  <rect
    x="2.69092"
    y="3.2793"
    width="6.31615"
    height="4.96269"
    fill="#939393"
  />
  <rect x="11.7139" y="3.2793" width="5.865" height="4.96269" fill="#BBBBBB" />
  <rect
    x="20.7368"
    y="3.2793"
    width="8.12076"
    height="4.96269"
    fill="#BBBBBB"
  />
  <rect
    x="2.69092"
    y="10.9492"
    width="6.31615"
    height="4.96269"
    fill="#939393"
  />
  <rect x="11.7139" y="10.9492" width="5.865" height="4.96269" fill="#BBBBBB" />
  <rect
    x="20.7368"
    y="10.9492"
    width="8.12076"
    height="4.96269"
    fill="#BBBBBB"
  />
  <rect
    x="2.69092"
    y="18.6187"
    width="6.31615"
    height="4.51154"
    fill="#939393"
  />
  <rect x="11.7139" y="18.6187" width="5.865" height="4.51154" fill="#BBBBBB" />
  <rect
    x="20.7368"
    y="18.6187"
    width="8.12076"
    height="4.51154"
    fill="#BBBBBB"
  />
  <rect
    x="2.69092"
    y="25.8369"
    width="6.31615"
    height="4.96269"
    fill="#939393"
  />
  <rect x="11.7139" y="25.8369" width="5.865" height="4.96269" fill="#BBBBBB" />
  <rect
    x="20.7368"
    y="25.8369"
    width="8.12076"
    height="4.96269"
    fill="#BBBBBB"
  />
</svg>
